<svg width="256" height="256" viewBox="0 0 256 256" fill="none" xmlns="http://www.w3.org/2000/svg">
<rect width="256" height="256" fill="white"/>
<path d="M50.9111 99.0039V99.0049C54.6345 99.0109 57.6835 101.981 57.6836 105.682V143.596C57.6834 150.996 51.5438 156.996 44.0508 156.996C36.5786 156.996 30.4519 151.039 30.4189 143.655L30.3965 143.557V105.682C30.3966 101.977 33.4522 99.0039 37.1807 99.0039C40.9091 99.004 43.9647 101.977 43.9648 105.682V144.21C43.9649 144.218 43.9667 144.229 43.9805 144.242C43.9949 144.256 44.015 144.266 44.04 144.266C44.0651 144.266 44.0851 144.256 44.0996 144.242C44.1134 144.229 44.1152 144.218 44.1152 144.21V105.686L44.1279 105.635C44.1537 101.956 47.1918 99.0109 50.8994 99.0049V99.0039H50.9111Z" fill="white" stroke="#18181B" stroke-width="2"/>
<path d="M72.5771 154.087L72.5762 154.086C72.575 154.084 72.5732 154.082 72.5713 154.079C72.5672 154.074 72.5614 154.066 72.5547 154.058C68.5393 148.81 66.5409 145.624 62.7764 140.283C62.7647 140.267 62.7475 140.254 62.7236 140.25C62.6997 140.246 62.6819 140.252 62.6689 140.261C62.6607 140.266 62.6533 140.276 62.6504 140.292C62.6475 140.309 62.6515 140.32 62.6572 140.328C65.7599 144.787 66.4111 145.667 70.7227 151.674C70.9932 152.051 71.159 152.477 71.1768 152.936C71.1943 153.391 71.0632 153.804 70.8623 154.154C70.478 154.824 69.8006 155.337 69.125 155.716C67.7579 156.482 65.8832 156.975 64.4727 156.975C60.7568 156.975 57.6836 154.013 57.6836 150.312V105.667C57.6836 101.966 60.7568 99.0039 64.4727 99.0039C66.2165 99.0039 68.2314 99.5742 69.4512 101.124L69.5674 101.277L69.5703 101.28V101.281L69.5713 101.282C69.572 101.283 69.5728 101.285 69.5742 101.287C69.5772 101.291 69.582 101.297 69.5879 101.306C69.5997 101.322 69.6175 101.347 69.6406 101.379C69.687 101.444 69.7552 101.54 69.8438 101.663C70.0211 101.911 70.2797 102.271 70.6016 102.72C71.2453 103.618 72.1453 104.873 73.1699 106.301C75.2194 109.157 77.767 112.706 79.7617 115.473C79.7708 115.485 79.7879 115.498 79.8154 115.503C79.8427 115.508 79.8628 115.501 79.877 115.491C79.8869 115.484 79.8925 115.478 79.8955 115.474C79.8988 115.468 79.9005 115.463 79.9014 115.458C79.9023 115.453 79.9018 115.449 79.9014 115.447C79.9011 115.446 79.9004 115.443 79.8965 115.438C76.788 111.116 76.7832 111.086 71.9434 104.349C71.6718 103.971 71.5076 103.543 71.4922 103.083C71.477 102.628 71.61 102.216 71.8105 101.866C72.1948 101.197 72.8688 100.677 73.5449 100.291C74.9106 99.5123 76.786 99.0013 78.1943 99.0039C81.909 99.011 84.9707 101.967 84.9707 105.667V150.334C84.9704 154.034 81.9093 156.996 78.1816 156.996C76.076 156.996 74.0908 156.034 72.8057 154.396L72.5771 154.087ZM72.5771 154.087C72.578 154.088 72.5787 154.088 72.5791 154.089C72.5785 154.088 72.577 154.086 72.5752 154.084L72.5771 154.087Z" fill="white" stroke="#18181B" stroke-width="2"/>
<path d="M102.432 99.0039C107.838 99.0042 112.258 103.335 112.258 108.655C112.258 113.982 107.832 118.263 102.432 118.264H97.7031C97.6528 118.264 97.622 118.282 97.6064 118.297C97.5985 118.305 97.5942 118.312 97.5918 118.317C97.5898 118.322 97.587 118.329 97.5869 118.341C97.5869 118.354 97.5915 118.372 97.6133 118.394C97.6364 118.416 97.6685 118.43 97.7031 118.43H102.432C107.832 118.43 112.258 122.711 112.258 128.038C112.258 133.075 108.265 137.239 103.191 137.622L103.153 137.625H97.7031C97.6529 137.625 97.6221 137.643 97.6064 137.658C97.5984 137.666 97.5942 137.673 97.5918 137.679C97.5897 137.683 97.5869 137.69 97.5869 137.702C97.5869 137.715 97.5914 137.734 97.6133 137.755C97.6365 137.777 97.6688 137.79 97.7031 137.79H103.152L103.188 137.793C108.266 138.163 112.258 142.341 112.258 147.366C112.258 152.701 107.834 156.996 102.432 156.996H91.6504C87.993 156.921 84.9707 153.957 84.9707 150.318V105.682C84.9708 101.971 88.0497 99.0039 91.793 99.0039H102.432Z" fill="white" stroke="#18181B" stroke-width="2"/>
<path d="M218.514 99.2715C220.16 98.7732 221.644 98.9931 222.834 99.7471C223.997 100.484 224.788 101.673 225.214 102.969C226.052 105.521 225.584 108.872 223.213 110.855L223.163 110.897L223.107 110.933C219.033 113.52 213.365 117.17 209.173 119.809C209.173 119.812 209.173 119.816 209.174 119.818L209.17 119.812L209.174 119.819C209.177 119.824 209.184 119.833 209.196 119.842C209.209 119.851 209.225 119.858 209.24 119.862C209.251 119.865 209.259 119.864 209.264 119.864H209.266C211.5 118.465 213.715 117.04 215.948 115.617L216.018 115.573L216.093 115.541C220.407 113.698 225.604 116.763 225.604 121.768V142.259L225.599 142.311C225.418 144.057 224.575 145.643 223.197 146.779L223.149 146.818L223.097 146.852C221.98 147.561 220.707 148.526 219.302 149.605C217.91 150.675 216.398 151.847 214.848 152.928C211.796 155.054 208.365 156.996 205.116 156.996C201.387 156.996 198.327 154.027 198.327 150.323C198.327 149.541 198.316 148.628 198.676 147.704C199.048 146.747 199.764 145.885 200.988 145.005L201.007 144.991L201.026 144.979L214.586 136.14C214.588 136.138 214.59 136.137 214.592 136.135C214.594 136.132 214.597 136.127 214.599 136.119C214.602 136.102 214.597 136.091 214.594 136.086L214.593 136.085C214.592 136.084 214.591 136.082 214.586 136.079C214.58 136.075 214.569 136.07 214.554 136.067C214.521 136.061 214.5 136.071 214.493 136.075L214.488 136.078L214.487 136.079L214.485 136.08L214.444 136.107C214.416 136.126 214.373 136.154 214.318 136.19C214.209 136.263 214.049 136.368 213.852 136.498C213.456 136.759 212.907 137.12 212.29 137.526C211.056 138.339 209.55 139.33 208.466 140.041L208.429 140.065L208.391 140.086C206.181 141.272 203.652 140.951 201.718 139.787C199.785 138.624 198.317 136.542 198.316 134.049V114.318L198.329 113.704C198.391 112.301 198.679 111.099 199.33 110.016C200.067 108.79 201.206 107.823 202.738 106.882C204.265 105.944 206.27 104.979 208.814 103.8C211.375 102.613 214.512 101.194 218.368 99.3281L218.438 99.2939L218.514 99.2715Z" fill="white" stroke="#18181B" stroke-width="2"/>
<path d="M191.541 99.0039V99.0049C195.263 99.0108 198.316 101.978 198.316 105.658V143.647C198.316 145.137 198.043 146.586 197.585 147.965L197.582 147.973L197.579 147.981C195.678 153.38 190.483 156.996 184.679 156.996C177.176 156.996 171.029 151.023 171.029 143.637V105.658C171.029 101.961 174.103 99.004 177.815 99.0039C181.53 99.0039 184.603 101.973 184.603 105.658V144.034C184.603 144.039 184.604 144.048 184.617 144.062C184.631 144.075 184.652 144.085 184.679 144.085C184.705 144.085 184.726 144.075 184.74 144.062C184.754 144.048 184.754 144.039 184.754 144.034V105.669C184.754 101.974 187.823 99.0213 191.53 99.0049V99.0039H191.541Z" fill="white" stroke="#18181B" stroke-width="2"/>
<path d="M170.029 105.163C170.029 102.315 167.571 100.006 164.537 100.006H149.939C146.906 100.006 144.447 102.315 144.447 105.163V136.245C144.447 136.285 144.444 136.324 144.439 136.363V152.68C144.439 154.512 146.02 155.996 147.971 155.996C149.921 155.996 151.502 154.512 151.502 152.68V146.016C151.502 145.446 151.994 144.985 152.6 144.984C153.207 144.984 153.699 145.446 153.699 146.016V152.68C153.699 154.511 155.281 155.996 157.231 155.996C159.181 155.996 160.763 154.512 160.763 152.68V146.016C160.763 145.446 161.254 144.984 161.861 144.984C162.467 144.985 162.959 145.446 162.959 146.016V152.68C162.959 154.512 164.54 155.996 166.491 155.996C168.441 155.996 170.022 154.512 170.022 152.68V128.158C170.022 128.118 170.025 128.078 170.029 128.039V105.163Z" fill="white"/>
<path d="M164.537 99.0061L164.866 99.0139C168.245 99.1755 171.029 101.813 171.029 105.163V128.039C171.029 128.079 171.027 128.12 171.022 128.159C171.022 128.164 171.021 128.163 171.021 128.157V152.68C171.021 155.122 168.933 156.996 166.49 156.996C164.048 156.996 161.959 155.122 161.959 152.68V146.023C161.958 146.021 161.956 146.019 161.953 146.016C161.939 146.002 161.908 145.985 161.86 145.985C161.813 145.985 161.783 146.002 161.769 146.016C161.766 146.018 161.764 146.02 161.763 146.022V152.68C161.763 155.122 159.674 156.996 157.231 156.996C154.789 156.996 152.699 155.122 152.699 152.68V146.023C152.698 146.021 152.696 146.019 152.692 146.016C152.685 146.009 152.674 146.001 152.659 145.995L152.601 145.985C152.553 145.985 152.522 146.002 152.508 146.016C152.505 146.019 152.503 146.021 152.502 146.023V152.68C152.502 155.046 150.541 156.878 148.198 156.99L147.971 156.996C145.528 156.996 143.439 155.122 143.439 152.68V136.364C143.439 136.324 143.442 136.283 143.446 136.243C143.447 136.237 143.447 136.238 143.447 136.245V105.163C143.447 101.704 146.414 99.0061 149.939 99.0061H164.537Z" stroke="#18181B" stroke-width="2" stroke-linecap="round" stroke-linejoin="round"/>
<path d="M150.433 117.82L152.813 120.184M152.813 120.184L155.193 122.548M152.813 120.184L155.193 117.82M152.813 120.184L150.433 122.548M159.563 117.82L161.944 120.184M161.944 120.184L164.324 122.548M161.944 120.184L164.324 117.82M161.944 120.184L159.564 122.548" stroke="#18181B" stroke-width="2" stroke-linecap="round"/>
<path d="M136.654 99.0039C140.372 99.0039 143.438 101.988 143.438 105.683V150.317C143.438 154.023 140.383 156.996 136.654 156.996C132.926 156.996 129.87 154.023 129.87 150.317V137.73C129.87 137.723 129.868 137.712 129.854 137.698C129.84 137.684 129.82 137.675 129.795 137.675C129.77 137.675 129.75 137.684 129.735 137.698C129.722 137.712 129.72 137.723 129.72 137.73V150.317C129.72 154.023 126.664 156.996 122.936 156.996C119.207 156.996 116.152 154.023 116.151 150.317V105.693C116.152 101.988 119.207 99.0146 122.936 99.0146C126.665 99.0148 129.72 102 129.72 105.693V118.107C129.72 118.115 129.721 118.127 129.735 118.141C129.75 118.155 129.77 118.164 129.795 118.164C129.82 118.164 129.84 118.155 129.854 118.141C129.869 118.127 129.87 118.115 129.87 118.107V105.693C129.87 101.988 132.926 99.0165 136.651 99.0039H136.654Z" fill="white" stroke="#18181B" stroke-width="2"/>
<path d="M113.566 151.135C115.186 151.135 116.514 152.439 116.514 154.065C116.514 155.692 115.186 156.996 113.566 156.996C111.947 156.996 110.62 155.691 110.62 154.065C110.62 152.439 111.947 151.135 113.566 151.135Z" fill="white" stroke="#18181B" stroke-width="2"/>
</svg>
