<svg width="64" height="64" viewBox="0 0 64 64" fill="none" xmlns="http://www.w3.org/2000/svg">
  <path
    d="M25.5156 1.5C30.0401 1.50659 33.787 5.12191 33.7871 9.67773V47.5918L33.7822 47.9775C33.573 56.053 26.8194 62.4922 18.6543 62.4922C10.4419 62.492 3.65822 55.9878 3.52637 47.833L3.5127 47.7764L3.5 47.7207V9.67773L3.51074 9.25293C3.7354 4.89507 7.39585 1.5 11.7842 1.5L12.0771 1.50488C14.7966 1.59886 17.2043 2.99559 18.6484 5.10059C20.138 2.92944 22.6534 1.51413 25.4775 1.50195L25.4941 1.5H25.5156ZM25.2373 4.50684C22.4406 4.64816 20.2306 6.91784 20.2305 9.67773V9.69238L20.2285 9.75781V9.7666L20.2275 9.77539C20.2264 9.79284 20.2213 9.81122 20.2188 9.83105V48.2178L20.2178 48.2285L20.2129 48.3359V48.3506L20.2109 48.3652C20.1287 49.1559 19.4507 49.7617 18.6436 49.7617C17.8365 49.7616 17.1584 49.1559 17.0762 48.3652L17.0742 48.3506V48.3359L17.0693 48.2285L17.0684 48.2178V9.67773C17.0682 6.92063 14.8624 4.65232 12.0693 4.50684V4.50781L11.7773 4.5C8.85411 4.50362 6.50012 6.82962 6.5 9.67773V47.3916C6.50113 47.3978 6.50273 47.4043 6.50391 47.4111C6.50919 47.4418 6.51968 47.5129 6.52051 47.584L6.52637 47.8984L6.53809 48.1982C6.86117 54.4742 12.1709 59.492 18.6543 59.4922C25.2403 59.4922 30.6165 54.3038 30.7832 47.8984L30.7871 47.5918V9.67773C30.787 6.82916 28.4326 4.50294 25.5088 4.5L25.2373 4.50684Z"
    fill="black" stroke="black" />
  <path
    d="M52.79 1.5C57.3091 1.5 61.074 5.1294 61.0742 9.67871V54.3135L61.0635 54.7383C60.8388 59.0963 57.1789 62.4922 52.79 62.4922C49.9539 62.492 47.4271 61.0742 45.9307 58.8975C44.486 60.999 42.081 62.3934 39.3643 62.4873L39.0713 62.4922C34.5408 62.4922 30.7873 58.8736 30.7871 54.3135V9.68945L30.7979 9.26465C31.0226 4.90673 34.6825 1.51074 39.0713 1.51074L39.3643 1.51562C42.0805 1.60976 44.4833 3.0069 45.9277 5.10547C47.4235 2.92811 49.9507 1.50966 52.7822 1.5H52.79ZM52.791 4.5C49.8636 4.51053 47.5061 6.83923 47.5059 9.68945V22.1035C47.5059 22.9697 46.7912 23.6602 45.9307 23.6602H45.917L45.9043 23.6592L45.7949 23.6533H45.7832L45.7715 23.6514C45.0364 23.5779 44.4412 23.0017 44.3643 22.2637L44.3623 22.251V22.2393L44.3564 22.1309L44.3555 22.1172V9.68945C44.3553 6.94148 42.1483 4.66429 39.3555 4.51855L39.0645 4.51074C36.1414 4.51436 33.7873 6.84071 33.7871 9.68945V54.2998L33.7949 54.5918C33.937 57.2215 36.0868 59.3441 38.7842 59.4854L39.0762 59.4912C41.9041 59.4886 44.2006 57.3123 44.3477 54.5918L44.3555 54.3135V41.7266L44.3633 41.5664C44.4451 40.7768 45.1245 40.171 45.9307 40.1709C46.7906 40.1709 47.5056 40.8603 47.5059 41.7266V54.2998L47.5137 54.5918C47.6608 57.3137 49.9599 59.4919 52.79 59.4922C55.6203 59.4922 57.9193 57.3139 58.0664 54.5918L58.0742 54.3135V9.67871C58.074 6.83886 55.7056 4.50052 52.791 4.5Z"
    fill="black" stroke="black" />
</svg>