<svg width="256" height="256" viewBox="0 0 256 256" fill="none" xmlns="http://www.w3.org/2000/svg">
<rect width="256" height="256" fill="black"/>
<path d="M221.749 97.2764C223.436 96.7617 224.954 96.9897 226.17 97.7666C227.358 98.5262 228.166 99.7499 228.602 101.085C229.459 103.714 228.98 107.166 226.557 109.21L226.507 109.253L226.451 109.288C222.259 111.972 216.427 115.761 212.118 118.494C212.118 118.51 212.12 118.525 212.122 118.535C212.125 118.547 212.127 118.548 212.122 118.541L212.127 118.548C212.14 118.568 212.17 118.595 212.211 118.605C212.229 118.61 212.241 118.609 212.246 118.608H212.247L212.253 118.605C214.549 117.156 216.825 115.679 219.119 114.205L219.188 114.161L219.264 114.128C223.691 112.221 229 115.398 229 120.544V141.769L228.994 141.819C228.809 143.616 227.95 145.25 226.54 146.422L226.492 146.462L226.44 146.495C225.292 147.23 223.984 148.23 222.54 149.349C221.11 150.456 219.557 151.671 217.965 152.79C214.83 154.993 211.31 157 207.979 157C204.155 157 201.031 153.932 201.031 150.124C201.031 149.312 201.021 148.375 201.387 147.426C201.765 146.444 202.496 145.556 203.751 144.646L203.77 144.633L203.789 144.62L217.72 135.464C217.728 135.458 217.742 135.446 217.747 135.418C217.753 135.389 217.746 135.367 217.736 135.353L217.735 135.352C217.731 135.345 217.716 135.328 217.679 135.321C217.641 135.314 217.613 135.324 217.601 135.332L217.596 135.336H217.595C217.594 135.336 217.594 135.337 217.593 135.338C217.591 135.339 217.588 135.341 217.584 135.344C217.576 135.349 217.565 135.356 217.551 135.365C217.521 135.385 217.477 135.415 217.421 135.452C217.308 135.527 217.145 135.636 216.942 135.771C216.536 136.04 215.971 136.415 215.337 136.836C214.069 137.678 212.522 138.704 211.408 139.44L211.371 139.465L211.333 139.485C209.07 140.71 206.48 140.378 204.499 139.177C202.519 137.976 201.021 135.83 201.021 133.266V112.827C201.021 111.101 201.296 109.666 202.056 108.392C202.808 107.129 203.974 106.131 205.547 105.157C207.114 104.186 209.173 103.188 211.787 101.966C214.418 100.736 217.641 99.2665 221.603 97.334L221.674 97.2998L221.749 97.2764Z" stroke="white" stroke-width="2"/>
<path d="M194.027 97V97.001C197.844 97.0073 200.961 100.072 200.961 103.856V143.208C200.961 144.746 200.68 146.242 200.211 147.667L200.208 147.675L200.205 147.684C198.258 153.259 192.934 157 186.977 157C179.275 157 172.981 150.821 172.981 143.197V103.856C172.982 100.055 176.118 97.0002 179.926 97C183.735 97 186.871 100.067 186.871 103.856V143.608C186.871 143.626 186.878 143.646 186.897 143.666C186.917 143.686 186.944 143.697 186.977 143.697C187.009 143.697 187.036 143.686 187.056 143.666C187.075 143.646 187.082 143.626 187.082 143.608V103.868C187.082 100.069 190.214 97.0183 194.016 97.001V97H194.027Z" stroke="white" stroke-width="2"/>
<path d="M157.077 114.075L161.971 118.973M161.972 114.075L157.077 118.973" stroke="white" stroke-width="2" stroke-linecap="round"/>
<path d="M165.989 97C169.815 97 172.932 100.085 172.932 103.883V150.117C172.932 153.927 169.813 157 165.989 157C162.165 157 159.047 153.927 159.047 150.117V136.376C159.047 136.335 159.008 136.282 158.941 136.282C158.876 136.282 158.837 136.335 158.837 136.376V150.117C158.837 153.927 155.719 157 151.895 157C148.071 157 144.952 153.927 144.952 150.117V103.894L144.961 103.539C145.148 99.8941 148.202 97.0123 151.894 97.0117L165.988 97H165.989Z" stroke="white" stroke-width="2" stroke-linecap="round"/>
<path d="M137.962 97C141.774 97 144.904 100.084 144.904 103.883V150.117C144.904 153.927 141.786 157 137.962 157C134.138 157 131.02 153.927 131.02 150.117V137.079C131.019 137.038 130.98 136.985 130.914 136.985C130.849 136.986 130.81 137.038 130.81 137.079V150.117C130.81 153.927 127.691 157 123.867 157C120.043 157 116.925 153.927 116.925 150.117V103.894C116.925 100.084 120.043 97.0107 123.867 97.0107C127.692 97.0109 130.809 100.096 130.81 103.894V116.753C130.81 116.794 130.848 116.846 130.914 116.847C130.98 116.847 131.02 116.794 131.02 116.753V103.894C131.02 100.083 134.138 97.013 137.959 97H137.962Z" stroke="white" stroke-width="2"/>
<path d="M113.988 158C115.093 158 115.988 157.105 115.988 156C115.988 154.895 115.093 154 113.988 154C112.884 154 111.988 154.895 111.988 156C111.988 157.105 112.884 158 113.988 158Z" fill="white"/>
<path d="M100.983 97L101.5 97.0127C106.809 97.2804 111.052 101.65 111.052 106.962C111.052 112.452 106.525 116.879 100.983 116.879H96.125C96.0689 116.879 96.0313 116.899 96.0098 116.92C95.9894 116.94 95.9795 116.963 95.9795 116.995C95.9796 117.021 95.9888 117.05 96.0166 117.077C96.0458 117.106 96.0847 117.122 96.125 117.122H100.983C106.525 117.122 111.052 121.55 111.052 127.039C111.052 132.23 106.969 136.535 101.763 136.931L101.725 136.934H96.125C96.0692 136.934 96.0324 136.955 96.0107 136.976C95.9902 136.996 95.9795 137.018 95.9795 137.05C95.9795 137.076 95.9894 137.105 96.0176 137.133C96.0469 137.161 96.0851 137.178 96.125 137.178H101.724L101.76 137.18C106.969 137.563 111.052 141.882 111.052 147.061C111.052 152.559 106.527 157 100.983 157H89.9082C86.1574 156.922 83.0725 153.86 83.0723 150.119V103.882C83.0723 100.066 86.2146 97 90.0537 97H100.983Z" stroke="white" stroke-width="2"/>
<path d="M76.0742 97L76.4287 97.0098C80.0731 97.2038 83.0066 100.178 83.0068 103.865V150.134C83.0068 153.938 79.8818 157 76.0586 157C73.7792 157 71.6373 155.891 70.3389 154.021C70.3365 154.019 70.3344 154.016 70.333 154.015C70.3166 153.994 70.3024 153.976 70.2939 153.964C70.2849 153.951 70.2776 153.94 70.2725 153.933C70.2698 153.929 70.2674 153.926 70.2656 153.923C70.2647 153.921 70.2634 153.92 70.2627 153.919L70.2617 153.917L70.2607 153.916L60.2549 139.702L60.2529 139.699C60.2177 139.649 60.1519 139.641 60.1104 139.667C60.0969 139.677 60.0855 139.69 60.0781 139.701C60.0708 139.713 60.072 139.716 60.0732 139.709V139.758C60.0757 139.769 60.08 139.781 60.0889 139.794L68.3779 151.55L68.6816 151.98L68.499 152.474C67.4944 155.185 64.9163 156.978 61.9746 156.978C58.1639 156.977 55.0273 153.917 55.0273 150.111V103.865C55.0276 100.06 58.164 97.0001 61.9746 97C63.8017 97 65.5592 97.7187 66.8584 98.9873L67.1113 99.248L67.1543 99.2939L67.1904 99.3457L77.6621 114.047C77.6771 114.068 77.7015 114.084 77.7344 114.09C77.7667 114.095 77.7932 114.088 77.8135 114.074C77.862 114.04 77.86 113.99 77.8408 113.963L77.8398 113.962L69.6689 102.476L69.3652 102.048L69.5439 101.555C70.5231 98.8549 73.1445 97.0001 76.0703 97H76.0742Z" stroke="white" stroke-width="2"/>
<path d="M48.0479 97V97.001C51.8667 97.0068 54.9795 100.076 54.9795 103.882V143.154C54.9795 150.792 48.6923 157 41.001 157C33.3292 157 27.0544 150.834 27.0234 143.211L27 143.109V103.882C27 100.072 30.1186 97 33.9424 97C37.7661 97 40.8848 100.072 40.8848 103.882V143.791C40.8849 143.812 40.8922 143.833 40.9121 143.853C40.9325 143.873 40.9589 143.885 40.9893 143.885C41.0197 143.885 41.046 143.873 41.0664 143.853C41.0866 143.833 41.0946 143.812 41.0947 143.791V103.892L41.1074 103.84C41.1301 100.053 44.2324 97.0069 48.0371 97.001V97H48.0479Z" stroke="white" stroke-width="2"/>
</svg>
