<svg width="512" height="512" viewBox="0 0 512 512" fill="none" xmlns="http://www.w3.org/2000/svg">
<path d="M470.695 223.275L470.645 223.349C468.491 223.2 466.413 223.574 464.436 224.423L450.094 233.609C450.094 233.609 449.992 233.684 449.916 233.709L449.004 234.283C448.497 234.607 447.864 234.732 447.23 234.582C446.546 234.432 445.963 234.008 445.609 233.434C445.076 232.585 445.152 231.337 445.811 230.563C445.938 230.414 448.32 228.891 452.907 225.97C459.799 221.602 453.008 225.92 453.084 225.896L478.475 209.645C481.414 207.174 483.087 203.58 483.138 199.786C483.062 192.622 477.081 186.781 469.783 186.781C467.199 186.781 464.462 187.405 462.485 188.428L455.567 192.472L431.545 207.848C431.443 208.048 431.266 208.223 431.089 208.322C427.186 210.769 424.83 214.912 424.83 219.455V265.21C424.83 272.474 430.81 278.365 438.184 278.365C440.135 278.365 442.669 277.891 444.671 277.167L458.558 267.981C459.115 267.607 459.774 267.482 460.407 267.607C461.066 267.731 461.624 268.106 461.978 268.63C462.333 269.154 462.485 269.828 462.359 270.452C462.232 271.101 461.852 271.65 461.32 272L437.272 287.9L432.634 290.996H432.609L429.416 293.068C426.502 295.589 424.855 299.183 424.855 302.952C424.855 310.216 430.835 316.107 438.209 316.107C440.794 316.107 443.303 315.358 445.482 313.985C445.609 313.911 445.735 313.861 445.862 313.811L478.45 292.943C481.161 290.696 482.808 287.576 483.163 284.131V236.729C483.163 229.64 477.689 223.724 470.695 223.275Z" fill="black"/>
<path d="M406.483 186.481H406.509C399.16 186.506 393.154 192.397 393.154 199.661V288.924C393.154 290.272 392.039 291.37 390.671 291.37C389.303 291.37 388.188 290.272 388.188 288.924V199.636C388.188 192.397 382.182 186.481 374.833 186.481C367.485 186.481 361.479 192.372 361.479 199.636V288C361.479 303.851 374.58 316.756 390.671 316.756C403.113 316.756 414.212 308.943 418.267 297.336C418.596 296.337 418.9 295.314 419.128 294.316C419.584 292.244 419.838 290.122 419.838 288.025V199.636C419.838 192.397 413.857 186.481 406.483 186.481Z" fill="black"/>
<path d="M343.183 186.481L311.508 186.506C304.159 186.506 298.153 192.397 298.153 199.661V303.027C298.153 310.291 304.134 316.182 311.508 316.182C318.882 316.182 324.862 310.291 324.862 303.027V272.299C324.862 270.951 325.977 269.853 327.345 269.853C328.714 269.853 329.829 270.951 329.829 272.299V303.027C329.829 310.291 335.809 316.182 343.183 316.182C350.557 316.182 356.537 310.291 356.537 303.027V199.636C356.537 192.397 350.557 186.481 343.183 186.481ZM335.708 230.913C336.671 231.861 336.671 233.409 335.708 234.358C335.226 234.832 334.593 235.081 333.959 235.081C333.326 235.081 332.692 234.857 332.211 234.358L328.688 230.888L325.166 234.358C324.685 234.832 324.051 235.056 323.418 235.056C322.784 235.056 322.151 234.807 321.669 234.358C320.706 233.409 320.706 231.861 321.669 230.913L325.191 227.443L321.669 223.973C320.706 223.025 320.706 221.477 321.669 220.529C322.151 220.054 322.784 219.805 323.418 219.805C324.051 219.805 324.685 220.054 325.166 220.529L328.688 223.998L332.211 220.529C332.692 220.054 333.326 219.805 333.959 219.805C334.593 219.805 335.226 220.054 335.708 220.529C336.671 221.477 336.671 223.025 335.708 223.973L332.185 227.443L335.708 230.913Z" fill="black"/>
<path d="M279.858 186.481C272.484 186.506 266.503 192.397 266.503 199.661V228.417C266.503 229.765 265.388 230.863 264.02 230.863C262.652 230.863 261.537 229.765 261.537 228.417V199.661C261.537 192.422 255.556 186.506 248.182 186.506C240.808 186.506 234.828 192.397 234.828 199.661V303.027C234.828 310.291 240.808 316.182 248.182 316.182C255.556 316.182 261.537 310.291 261.537 303.027V273.872C261.537 272.524 262.652 271.426 264.02 271.426C265.388 271.426 266.503 272.524 266.503 273.872V303.027C266.503 310.291 272.484 316.182 279.858 316.182C287.232 316.182 293.212 310.291 293.212 303.027V199.636C293.212 192.397 287.206 186.481 279.858 186.481Z" fill="black"/>
<path d="M224.253 321.042C227.748 321.042 230.582 318.251 230.582 314.808C230.582 311.364 227.748 308.573 224.253 308.573C220.757 308.573 217.924 311.364 217.924 314.808C217.924 318.251 220.757 321.042 224.253 321.042Z" fill="black"/>
<path d="M185.262 226.12H196.108C207.283 226.12 216.355 217.184 216.355 206.176C216.355 195.167 207.283 186.131 196.108 186.131H171.705C164.331 186.131 158.351 192.022 158.351 199.286V302.703C158.351 309.817 164.23 315.708 171.427 315.857H196.108C207.283 315.857 216.355 306.896 216.355 295.863C216.355 285.479 208.17 276.767 197.679 275.994H185.262C183.869 275.994 182.703 274.87 182.703 273.472C182.703 272.075 183.843 270.976 185.262 270.976H197.679C208.17 270.177 216.355 261.491 216.355 251.082C216.355 240.074 207.283 231.137 196.108 231.137H185.262C183.869 231.137 182.703 230.014 182.703 228.616C182.703 227.218 183.843 226.12 185.262 226.12Z" fill="black"/>
<path d="M140.005 186.131C134.379 186.131 129.337 189.701 127.461 194.868L145.808 220.628C146.593 221.727 146.315 223.249 145.2 224.023C144.085 224.797 142.539 224.522 141.753 223.424L118.238 190.45C115.703 187.704 112.105 186.131 108.355 186.131C101.006 186.131 95.0005 192.022 95.0005 199.286V303.002C95.0005 310.266 101.006 316.157 108.355 316.157C114.031 316.157 118.972 312.712 120.898 307.52L102.273 281.136C101.893 280.586 101.766 279.937 101.868 279.313C101.969 278.689 102.349 278.115 102.881 277.741C103.996 276.967 105.542 277.242 106.328 278.365L128.83 310.291C128.83 310.291 128.88 310.366 128.906 310.391C131.389 314.035 135.545 316.207 139.979 316.207C147.353 316.207 153.334 310.316 153.334 303.052V199.286C153.334 192.022 147.353 186.156 140.005 186.131Z" fill="black"/>
<path d="M76.7303 186.131C69.3563 186.131 63.376 192.022 63.376 199.286C63.376 199.386 63.376 199.486 63.3506 199.586V288.549C63.3506 289.897 62.2356 290.996 60.8673 290.996C59.4989 290.996 58.3839 289.897 58.3839 288.549V199.286C58.3839 192.022 52.4036 186.131 45.0296 186.131C37.6556 186.131 31.6753 192.022 31.6753 199.286V286.777C31.6753 286.777 31.726 287.002 31.726 287.126C31.726 302.977 44.8269 315.857 60.8926 315.857C76.9583 315.857 90.0593 302.952 90.0593 287.126V199.286C90.0593 192.022 84.079 186.131 76.7049 186.131H76.7303Z" fill="black"/>
</svg>
